<svg width="48" height="41" viewBox="0 0 48 41" fill="none" xmlns="http://www.w3.org/2000/svg">
<path d="M23.5632 33.543C25.715 33.543 27.8184 32.9049 29.6075 31.7095C31.3966 30.514 32.791 28.8149 33.6145 26.8269C34.4379 24.839 34.6534 22.6515 34.2336 20.5411C33.8138 18.4307 32.7776 16.4922 31.2561 14.9707C29.7346 13.4492 27.7961 12.413 25.6857 11.9932C23.5753 11.5734 21.3878 11.7889 19.3999 12.6123C17.4119 13.4358 15.7128 14.8302 14.5173 16.6193C13.3219 18.4084 12.6838 20.5118 12.6838 22.6636C12.6872 25.5479 13.8345 28.3132 15.874 30.3528C17.9136 32.3923 20.6789 33.5396 23.5632 33.543ZM23.5632 15.4106C24.9977 15.4106 26.4 15.836 27.5927 16.633C28.7855 17.4299 29.7151 18.5627 30.2641 19.888C30.813 21.2133 30.9566 22.6716 30.6768 24.0786C30.3969 25.4855 29.7062 26.7778 28.6918 27.7922C27.6775 28.8065 26.3851 29.4973 24.9782 29.7771C23.5713 30.057 22.113 29.9134 20.7877 29.3644C19.4624 28.8154 18.3296 27.8858 17.5326 26.6931C16.7357 25.5003 16.3103 24.0981 16.3103 22.6636C16.3122 20.7406 17.077 18.8969 18.4368 17.5371C19.7965 16.1773 21.6402 15.4126 23.5632 15.4106Z" fill="url(#paint0_linear_1_1343)"/>
<path d="M41.6955 6.34448H33.5995L31.5868 3.32727C31.0911 2.58161 30.4186 1.97019 29.6292 1.54751C28.8398 1.12483 27.9582 0.904032 27.0628 0.904789H20.0637C19.1678 0.90377 18.2856 1.12464 17.4958 1.54766C16.7061 1.97069 16.0334 2.58272 15.5379 3.32908L13.5252 6.34448H5.43091C3.98865 6.34592 2.60588 6.9195 1.58605 7.93932C0.566223 8.95915 -0.00734897 10.3419 -0.00878906 11.7842V35.3562C-0.00878906 36.7989 0.56432 38.1825 1.58446 39.2026C2.6046 40.2228 3.98821 40.7959 5.43091 40.7959H9.05737C9.53827 40.7959 9.99947 40.6049 10.3395 40.2648C10.6796 39.9248 10.8706 39.4636 10.8706 38.9827C10.8706 38.5018 10.6796 38.0406 10.3395 37.7005C9.99947 37.3605 9.53827 37.1694 9.05737 37.1694H5.43091C4.95001 37.1694 4.48881 36.9784 4.14876 36.6383C3.80871 36.2983 3.61767 35.8371 3.61767 35.3562V11.7842C3.61767 11.3033 3.80871 10.8421 4.14876 10.502C4.48881 10.162 4.95001 9.97095 5.43091 9.97095H14.4971C14.7955 9.97099 15.0894 9.89737 15.3525 9.75661C15.6157 9.61586 15.84 9.41232 16.0057 9.16406L18.5551 5.33814C18.7204 5.08954 18.9446 4.88574 19.2079 4.74494C19.4711 4.60414 19.7652 4.53073 20.0637 4.53125H27.0628C27.3611 4.53069 27.655 4.6039 27.9182 4.74436C28.1814 4.88482 28.4058 5.08817 28.5714 5.33633L31.1208 9.16225C31.2862 9.41084 31.5105 9.61474 31.7737 9.75582C32.0368 9.8969 32.3308 9.97079 32.6294 9.97095H41.6955C42.1764 9.97095 42.6376 10.162 42.9777 10.502C43.3177 10.8421 43.5088 11.3033 43.5088 11.7842V35.3562C43.5088 35.8371 43.3177 36.2983 42.9777 36.6383C42.6376 36.9784 42.1764 37.1694 41.6955 37.1694H16.3103C15.8294 37.1694 15.3682 37.3605 15.0282 37.7005C14.6881 38.0406 14.4971 38.5018 14.4971 38.9827C14.4971 39.4636 14.6881 39.9248 15.0282 40.2648C15.3682 40.6049 15.8294 40.7959 16.3103 40.7959H41.6955C43.1378 40.7945 44.5206 40.2209 45.5404 39.201C46.5602 38.1812 47.1338 36.7985 47.1352 35.3562V11.7842C47.1338 10.3419 46.5602 8.95915 45.5404 7.93932C44.5206 6.9195 43.1378 6.34592 41.6955 6.34448Z" fill="url(#paint1_linear_1_1343)"/>
<defs>
<linearGradient id="paint0_linear_1_1343" x1="23.5632" y1="11.7842" x2="23.0837" y2="38.0799" gradientUnits="userSpaceOnUse">
<stop stop-color="#656565"/>
<stop offset="1" stop-color="#656565" stop-opacity="0"/>
</linearGradient>
<linearGradient id="paint1_linear_1_1343" x1="23.5632" y1="0.904785" x2="22.8193" y2="49.1182" gradientUnits="userSpaceOnUse">
<stop stop-color="#656565"/>
<stop offset="1" stop-color="#656565" stop-opacity="0"/>
</linearGradient>
</defs>
</svg>
