<svg width="48" height="37" viewBox="0 0 48 37" fill="none" xmlns="http://www.w3.org/2000/svg">
<path d="M46.9588 22.9788C46.8267 22.7806 46.6568 22.6105 46.4589 22.478C46.261 22.3455 46.0389 22.2533 45.8054 22.2067C45.5718 22.16 45.3314 22.1598 45.0978 22.2061C44.8641 22.2524 44.6419 22.3443 44.4438 22.4765L37.8147 26.8972C37.1371 26.3686 36.3391 26.0162 35.492 25.8716C34.6449 25.727 33.7752 25.7947 32.9606 26.0685L27.3179 18.5454H34.5708C35.0517 18.5454 35.5129 18.3544 35.8529 18.0143C36.193 17.6743 36.384 17.2131 36.384 16.7322V2.22632C36.384 1.74542 36.193 1.28422 35.8529 0.94417C35.5129 0.604123 35.0517 0.413086 34.5708 0.413086H12.812C12.3311 0.413086 11.8699 0.604123 11.5299 0.94417C11.1898 1.28422 10.9988 1.74542 10.9988 2.22632V3.33783L2.5056 0.507374C2.23316 0.416632 1.94306 0.391895 1.65918 0.435198C1.37531 0.478501 1.10578 0.588605 0.872783 0.756448C0.639785 0.924292 0.449983 1.14507 0.319001 1.40062C0.188019 1.65616 0.119603 1.93916 0.119385 2.22632V16.7322C0.119385 17.2131 0.310421 17.6743 0.650468 18.0143C0.990515 18.3544 1.45172 18.5454 1.93262 18.5454C2.12749 18.5456 2.32107 18.5138 2.5056 18.4511L6.13206 17.2417C6.36621 17.1734 6.58418 17.0586 6.77292 16.9041C6.96165 16.7496 7.11728 16.5586 7.23048 16.3425C7.34368 16.1265 7.41213 15.8898 7.43173 15.6467C7.45132 15.4036 7.42167 15.159 7.34454 14.9276C7.26741 14.6962 7.14439 14.4827 6.98283 14.3C6.82128 14.1173 6.62452 13.969 6.40434 13.8641C6.18414 13.7592 5.94505 13.6997 5.70136 13.6894C5.45767 13.679 5.2144 13.7179 4.9861 13.8038L3.74585 14.2154V4.74308L10.9988 7.15831V16.7322C10.9988 17.2131 11.1898 17.6743 11.5299 18.0143C11.8699 18.3544 12.3311 18.5454 12.812 18.5454H22.7848L30.0468 28.2262C29.529 28.9813 29.2093 29.8545 29.1171 30.7654C29.025 31.6763 29.1633 32.5958 29.5194 33.4393C29.8755 34.2827 30.438 35.0232 31.1551 35.5924C31.8721 36.1617 32.7208 36.5416 33.6231 36.6971C34.5253 36.8527 35.4522 36.7789 36.3185 36.4825C37.1848 36.1862 37.9627 35.6768 38.5807 35.0013C39.1986 34.3257 39.6368 33.5056 39.855 32.6164C40.0732 31.7272 40.0643 30.7974 39.8292 29.9126L46.4565 25.4937C46.6547 25.3616 46.8248 25.1917 46.9573 24.9938C47.0898 24.7959 47.182 24.5738 47.2286 24.3403C47.2752 24.1067 47.2754 23.8663 47.2291 23.6327C47.1828 23.3991 47.091 23.1769 46.9588 22.9788ZM14.6252 4.03955H32.7576V14.9189H14.6252V4.03955ZM34.5708 33.0513C34.2122 33.0513 33.8616 32.9449 33.5634 32.7457C33.2652 32.5464 33.0328 32.2632 32.8956 31.9319C32.7583 31.6006 32.7224 31.236 32.7924 30.8843C32.8624 30.5325 33.0351 30.2095 33.2886 29.9559C33.5422 29.7023 33.8653 29.5296 34.217 29.4596C34.5688 29.3897 34.9334 29.4256 35.2647 29.5628C35.596 29.7001 35.8792 29.9325 36.0784 30.2306C36.2777 30.5288 36.384 30.8794 36.384 31.238C36.384 31.7189 36.193 32.1801 35.8529 32.5202C35.5129 32.8602 35.0517 33.0513 34.5708 33.0513Z" fill="url(#paint0_linear_1_1373)"/>
<defs>
<linearGradient id="paint0_linear_1_1373" x1="23.6916" y1="0.413086" x2="23.6916" y2="36.7765" gradientUnits="userSpaceOnUse">
<stop stop-color="#656565"/>
<stop offset="1" stop-color="#656565" stop-opacity="0.38"/>
</linearGradient>
</defs>
</svg>
