<svg width="27" height="28" viewBox="0 0 27 28" fill="none" xmlns="http://www.w3.org/2000/svg">
<path fill-rule="evenodd" clip-rule="evenodd" d="M12.7334 4.16638C15.4139 4.16638 17.5995 6.33615 17.6287 9.01309L17.8662 9.01419C20.8583 9.01419 23.2915 11.4463 23.2915 14.4363V20.4119C23.2915 23.4009 20.8583 25.8329 17.8662 25.8329H7.59184C4.60075 25.8329 2.1665 23.4009 2.1665 20.4119V14.4363C2.1665 11.4463 4.60075 9.01419 7.59184 9.01419L7.81284 9.01322L7.81971 8.80253C7.88774 7.57353 8.3939 6.44608 9.26245 5.58663C10.1919 4.66472 11.4399 4.2043 12.7334 4.16638ZM17.8662 10.6392L17.6289 10.6382L17.629 12.352C17.629 12.8005 17.265 13.1645 16.8165 13.1645C16.368 13.1645 16.004 12.8005 16.004 12.352L16.0039 10.6382H9.43675L9.43686 12.352C9.43686 12.8005 9.07286 13.1645 8.62436 13.1645C8.17586 13.1645 7.81186 12.8005 7.81186 12.352L7.81175 10.6382L7.59184 10.6392C5.49667 10.6392 3.7915 12.3422 3.7915 14.4363V20.4119C3.7915 22.5049 5.49667 24.2079 7.59184 24.2079H17.8662C19.9613 24.2079 21.6665 22.5049 21.6665 20.4119V14.4363C21.6665 12.3422 19.9613 10.6392 17.8662 10.6392ZM12.7302 5.79138C11.8516 5.82172 11.0283 6.12505 10.4064 6.74038C9.79364 7.34785 9.45017 8.15312 9.43722 9.01311L16.0018 9.01322L15.9985 8.87523C15.8987 7.15833 14.4716 5.79138 12.7302 5.79138Z" fill="#A5A5A5"/>
<circle cx="20" cy="12" r="7" fill="#664BFA"/>
<path d="M20.1203 12.4C20.1203 11.7467 20.087 11.1833 20.0203 10.71C19.9536 10.23 19.8203 9.65667 19.6203 8.99L20.6203 8.64C20.8336 9.31333 20.9736 9.90333 21.0403 10.41C21.1136 10.9167 21.1503 11.5767 21.1503 12.39V15H20.1203V12.4Z" fill="white"/>
</svg>
