<svg width="23" height="23" viewBox="0 0 23 23" fill="none" xmlns="http://www.w3.org/2000/svg">
<path fill-rule="evenodd" clip-rule="evenodd" d="M11.7391 1.91675C16.0986 1.91675 19.6454 5.49037 19.6454 9.88337C19.6454 15.2836 13.4584 20.6042 11.7391 20.6042C10.0199 20.6042 3.83286 15.2836 3.83286 9.88337C3.83286 5.49037 7.37965 1.91675 11.7391 1.91675ZM11.7391 3.35425C8.17219 3.35425 5.27036 6.28387 5.27036 9.88337C5.27036 14.4632 10.66 18.9252 11.7391 19.1629C12.8182 18.9243 18.2079 14.4623 18.2079 9.88337C18.2079 6.28387 15.306 3.35425 11.7391 3.35425ZM11.7401 6.70841C13.4574 6.70841 14.8546 8.10567 14.8546 9.82396C14.8546 11.5413 13.4574 12.9376 11.7401 12.9376C10.0227 12.9376 8.62548 11.5413 8.62548 9.82396C8.62548 8.10567 10.0227 6.70841 11.7401 6.70841ZM11.7401 8.14591C10.8153 8.14591 10.063 8.89821 10.063 9.82396C10.063 10.7487 10.8153 11.5001 11.7401 11.5001C12.6649 11.5001 13.4171 10.7487 13.4171 9.82396C13.4171 8.89821 12.6649 8.14591 11.7401 8.14591Z" fill="white"/>
</svg>
