<svg width="23" height="23" viewBox="0 0 23 23" fill="none" xmlns="http://www.w3.org/2000/svg">
<path fill-rule="evenodd" clip-rule="evenodd" d="M6.38011 1.91702C7.45057 1.9314 8.2134 2.73352 9.17844 3.7484C9.41707 3.99852 9.67486 4.27165 9.96332 4.55915C11.3615 5.95831 10.9638 7.09969 10.6428 8.01586C10.2939 9.0154 9.99207 9.8779 11.7995 11.6853C13.6069 13.4927 14.4684 13.1909 15.467 12.8391C16.3842 12.5191 17.5227 12.1185 18.9237 13.5176C19.2084 13.8023 19.4767 14.0572 19.7259 14.2939C20.7446 15.2637 21.5496 16.0294 21.5631 17.1028C21.5735 18.017 21.0177 18.9504 19.6454 20.3228L19.0378 19.9107L19.5524 20.4119C19.2486 20.7234 18.4407 21.5533 16.8585 21.5629H16.8298C14.4416 21.5629 11.328 19.6615 7.57515 15.9096C3.80699 12.1424 1.90278 9.01923 1.91707 6.62627C1.92578 5.04502 2.75474 4.23523 3.06619 3.93144L3.09278 3.9024L3.15724 3.83752C4.53244 2.46231 5.47736 1.8969 6.38011 1.91702ZM6.3619 3.35452H6.35424C5.92388 3.35452 5.27033 3.78577 4.35882 4.67117L4.17578 4.85092L4.17786 4.85048C4.17786 4.85048 4.16222 4.86842 4.13556 4.89561L4.07149 4.95973C3.83957 5.18494 3.35944 5.65356 3.3546 6.63394C3.34699 8.00531 4.24878 10.5516 8.59099 14.8929C12.9121 19.213 15.4546 20.1254 16.8298 20.1254H16.8499C17.8303 20.1196 18.2979 19.6395 18.5232 19.4085C18.5912 19.3386 18.6468 19.2859 18.6861 19.2542C19.6415 18.293 20.1303 17.5791 20.1255 17.12C20.1197 16.6524 19.538 16.1004 18.734 15.3346C18.4781 15.0922 18.2002 14.8267 17.9069 14.5335C17.146 13.7754 16.7713 13.9048 15.9424 14.1961C14.7972 14.5977 13.2284 15.1478 10.7837 12.7011C8.33799 10.2564 8.88615 8.68765 9.28578 7.54148C9.57519 6.71348 9.70745 6.33685 8.94749 5.57594C8.6504 5.27886 8.38303 4.99711 8.13674 4.73836C7.37582 3.93911 6.82669 3.36123 6.3619 3.35452ZM14.6113 5.32629C16.6056 5.71346 18.1457 7.25254 18.5338 9.24779C18.6095 9.63879 18.3555 10.0154 17.9665 10.0911C17.9195 10.0998 17.8735 10.1045 17.8275 10.1045C17.4902 10.1045 17.1902 9.86688 17.1231 9.52379C16.8471 8.10546 15.7537 7.012 14.3372 6.73696C13.9472 6.66125 13.6932 6.28463 13.769 5.89458C13.8447 5.50454 14.228 5.24963 14.6113 5.32629ZM14.5539 1.92248C18.462 2.35661 21.4971 5.38782 21.935 9.29494C21.9791 9.68978 21.6954 10.0453 21.3016 10.0894C21.2747 10.0923 21.2469 10.0942 21.2201 10.0942C20.8588 10.0942 20.5483 9.82298 20.5071 9.45594C20.1439 6.22061 17.6311 3.70978 14.3948 3.3504C14.001 3.30632 13.7163 2.95173 13.7604 2.5569C13.8036 2.16303 14.1553 1.87265 14.5539 1.92248Z" fill="white"/>
</svg>
