<svg width="23" height="23" viewBox="0 0 23 23" fill="none" xmlns="http://www.w3.org/2000/svg">
<path d="M16.2336 2.875C17.5187 2.875 18.755 3.38292 19.6644 4.29429C20.5748 5.20375 21.0837 6.43042 21.0837 7.71458V15.2854C21.0837 17.9592 18.9083 20.125 16.2336 20.125H6.76622C4.09151 20.125 1.91705 17.9592 1.91705 15.2854V7.71458C1.91705 5.04083 4.08193 2.875 6.76622 2.875H16.2336ZM17.3175 7.85833C17.1162 7.84779 16.9246 7.91583 16.7798 8.05L12.4587 11.5C11.9029 11.961 11.1065 11.961 10.5421 11.5L6.22955 8.05C5.93151 7.82958 5.51943 7.85833 5.27122 8.11708C5.01247 8.37583 4.98372 8.78792 5.20318 9.07542L5.32872 9.2L9.68914 12.6021C10.2258 13.0237 10.8765 13.2537 11.5579 13.2537C12.2373 13.2537 12.8996 13.0237 13.4353 12.6021L17.7583 9.1425L17.835 9.06583C18.064 8.78792 18.064 8.38542 17.8244 8.1075C17.6912 7.96471 17.5082 7.8775 17.3175 7.85833Z" fill="white"/>
</svg>
