<svg width="49" height="42" viewBox="0 0 49 42" fill="none" xmlns="http://www.w3.org/2000/svg">
<path d="M46.7101 1.74761C45.6618 0.704681 44.2444 0.117285 42.7656 0.112915H5.57112C4.09143 0.112915 2.67234 0.700719 1.62605 1.74702C0.579748 2.79332 -0.00805664 4.2124 -0.00805664 5.69209V28.0088C-0.00657962 29.488 0.581699 30.9062 1.62768 31.9522C2.67366 32.9982 4.09188 33.5865 5.57112 33.588H22.3086V37.3074H16.7295C16.2362 37.3074 15.7632 37.5033 15.4144 37.8521C15.0657 38.2009 14.8697 38.6739 14.8697 39.1671C14.8697 39.6604 15.0657 40.1334 15.4144 40.4822C15.7632 40.8309 16.2362 41.0269 16.7295 41.0269H31.6073C32.1005 41.0269 32.5735 40.8309 32.9223 40.4822C33.2711 40.1334 33.467 39.6604 33.467 39.1671C33.467 38.6739 33.2711 38.2009 32.9223 37.8521C32.5735 37.5033 32.1005 37.3074 31.6073 37.3074H26.0281V33.588H27.8878C28.3811 33.588 28.8541 33.392 29.2028 33.0433C29.5516 32.6945 29.7475 32.2215 29.7475 31.7282C29.7475 31.235 29.5516 30.762 29.2028 30.4132C28.8541 30.0644 28.3811 29.8685 27.8878 29.8685H5.57112C5.07804 29.868 4.6053 29.6719 4.25664 29.3233C3.90798 28.9746 3.71189 28.5019 3.71139 28.0088V5.69209C3.71139 5.19886 3.90733 4.72583 4.25609 4.37707C4.60486 4.0283 5.07789 3.83236 5.57112 3.83236H42.7656C43.2589 3.83236 43.7319 4.0283 44.0806 4.37707C44.4294 4.72583 44.6253 5.19886 44.6253 5.69209V28.0088C44.6249 28.5019 44.4288 28.9746 44.0801 29.3233C43.7314 29.6719 43.2587 29.868 42.7656 29.8685H35.3267C34.8335 29.8685 34.3605 30.0644 34.0117 30.4132C33.6629 30.762 33.467 31.235 33.467 31.7282C33.467 32.2215 33.6629 32.6945 34.0117 33.0433C34.3605 33.392 34.8335 33.588 35.3267 33.588H42.7656C44.2449 33.5865 45.6631 32.9982 46.7091 31.9522C47.755 30.9062 48.3433 29.488 48.3448 28.0088V5.69209C48.3404 4.21333 47.753 2.79596 46.7101 1.74761Z" fill="url(#paint0_linear_1_1368)"/>
<defs>
<linearGradient id="paint0_linear_1_1368" x1="24.1684" y1="0.112915" x2="23.0525" y2="57.7644" gradientUnits="userSpaceOnUse">
<stop stop-color="#656565"/>
<stop offset="1" stop-color="#656565" stop-opacity="0"/>
</linearGradient>
</defs>
</svg>
