<svg width="74" height="51" viewBox="0 0 74 51" fill="none" xmlns="http://www.w3.org/2000/svg">
<path d="M71.145 13.849C70.3664 13.0663 69.4403 12.4456 68.4203 12.0229C67.4003 11.6002 66.3067 11.3838 65.2026 11.3863H48.3923C47.6492 11.3863 46.9366 11.6815 46.4112 12.2069C45.8857 12.7324 45.5905 13.445 45.5905 14.1881C45.5905 14.9311 45.8857 15.6437 46.4112 16.1692C46.9366 16.6946 47.6492 16.9898 48.3923 16.9898H65.2026C65.9456 16.9898 66.6582 17.285 67.1837 17.8104C67.7091 18.3358 68.0043 19.0484 68.0043 19.7915V36.6018C68.0043 37.3448 67.7091 38.0575 67.1837 38.5829C66.6582 39.1083 65.9456 39.4035 65.2026 39.4035H9.16824C8.42518 39.4035 7.71255 39.1083 7.18713 38.5829C6.6617 38.0575 6.36652 37.3448 6.36652 36.6018V19.7915C6.36652 19.0484 6.6617 18.3358 7.18713 17.8104C7.71255 17.285 8.42518 16.9898 9.16824 16.9898H12.2529C12.9472 20.3912 14.8798 23.4136 17.6759 25.4711C20.472 27.5286 23.9325 28.4746 27.3865 28.1257C30.8404 27.7768 34.0418 26.1578 36.3699 23.5826C38.698 21.0075 39.9871 17.6596 39.9871 14.1881C39.9871 10.7165 38.698 7.36863 36.3699 4.79347C34.0418 2.21831 30.8404 0.599333 27.3865 0.250412C23.9325 -0.0985089 20.472 0.847486 17.6759 2.90499C14.8798 4.9625 12.9472 7.98494 12.2529 11.3863H9.16824C6.93905 11.3863 4.80117 12.2719 3.2249 13.8482C1.64863 15.4244 0.763089 17.5623 0.763089 19.7915V36.6018C0.755064 38.3383 1.29123 40.0336 2.29626 41.4497C3.3013 42.8658 4.7247 43.9315 6.36652 44.497V47.8087C6.36652 48.5517 6.6617 49.2643 7.18713 49.7898C7.71255 50.3152 8.42518 50.6104 9.16824 50.6104C9.9113 50.6104 10.6239 50.3152 11.1493 49.7898C11.6748 49.2643 11.97 48.5517 11.97 47.8087V45.0069H62.4008V47.8087C62.4008 48.5517 62.696 49.2643 63.2214 49.7898C63.7469 50.3152 64.4595 50.6104 65.2026 50.6104C65.9456 50.6104 66.6582 50.3152 67.1837 49.7898C67.7091 49.2643 68.0043 48.5517 68.0043 47.8087V44.497C69.6461 43.9315 71.0695 42.8658 72.0745 41.4497C73.0796 40.0336 73.6157 38.3383 73.6077 36.6018V19.7915C73.6102 18.6874 73.3939 17.5937 72.9712 16.5738C72.5485 15.5538 71.9278 14.6277 71.145 13.849ZM25.9785 5.78291C27.6409 5.78291 29.266 6.27586 30.6482 7.19943C32.0304 8.123 33.1077 9.43571 33.7439 10.9715C34.38 12.5074 34.5465 14.1974 34.2222 15.8278C33.8979 17.4583 33.0974 18.9559 31.9219 20.1314C30.7464 21.3069 29.2487 22.1074 27.6183 22.4317C25.9879 22.756 24.2979 22.5896 22.762 21.9534C21.2262 21.3172 19.9135 20.2399 18.9899 18.8577C18.0663 17.4755 17.5734 15.8504 17.5734 14.1881C17.5756 11.9596 18.4619 9.82297 20.0377 8.24718C21.6134 6.67139 23.75 5.78513 25.9785 5.78291Z" fill="url(#paint0_linear_1_1360)"/>
<path d="M48.3923 33.8C49.1354 33.8 49.848 33.5048 50.3734 32.9794C50.8988 32.454 51.194 31.7413 51.194 30.9983V25.3949C51.194 24.6518 50.8988 23.9392 50.3734 23.4137C49.848 22.8883 49.1354 22.5931 48.3923 22.5931C47.6492 22.5931 46.9366 22.8883 46.4112 23.4137C45.8858 23.9392 45.5906 24.6518 45.5906 25.3949V30.9983C45.5906 31.7413 45.8858 32.454 46.4112 32.9794C46.9366 33.5048 47.6492 33.8 48.3923 33.8ZM62.4009 30.9983V25.3949C62.4009 24.6518 62.1057 23.9392 61.5803 23.4137C61.0548 22.8883 60.3422 22.5931 59.5992 22.5931C58.8561 22.5931 58.1435 22.8883 57.618 23.4137C57.0926 23.9392 56.7974 24.6518 56.7974 25.3949V30.9983C56.7974 31.7413 57.0926 32.454 57.618 32.9794C58.1435 33.5048 58.8561 33.8 59.5992 33.8C60.3422 33.8 61.0548 33.5048 61.5803 32.9794C62.1057 32.454 62.4009 31.7413 62.4009 30.9983Z" fill="url(#paint1_linear_1_1360)"/>
<defs>
<linearGradient id="paint0_linear_1_1360" x1="37.1854" y1="0.179443" x2="38.7863" y2="60.6165" gradientUnits="userSpaceOnUse">
<stop stop-color="#5F44F3"/>
<stop offset="1" stop-color="white"/>
</linearGradient>
<linearGradient id="paint1_linear_1_1360" x1="53.9957" y1="22.5931" x2="54.3383" y2="36.0243" gradientUnits="userSpaceOnUse">
<stop stop-color="#5F44F3"/>
<stop offset="1" stop-color="white"/>
</linearGradient>
</defs>
</svg>
