<svg width="28" height="28" viewBox="0 0 28 28" fill="none" xmlns="http://www.w3.org/2000/svg">
<path fill-rule="evenodd" clip-rule="evenodd" d="M13.6955 2.33337C19.9605 2.33337 25.0565 7.42937 25.0565 13.6944C25.0565 16.6502 23.9222 19.346 22.066 21.3693L25.7185 25.0142C26.0603 25.356 26.0615 25.909 25.7197 26.2509C25.5493 26.4235 25.3242 26.5087 25.1002 26.5087C24.8773 26.5087 24.6533 26.4235 24.4818 26.2532L20.7852 22.5669C18.8406 24.1242 16.375 25.0565 13.6955 25.0565C7.43054 25.0565 2.33337 19.9594 2.33337 13.6944C2.33337 7.42937 7.43054 2.33337 13.6955 2.33337ZM13.6955 4.08337C8.39537 4.08337 4.08337 8.39421 4.08337 13.6944C4.08337 18.9945 8.39537 23.3065 13.6955 23.3065C18.9945 23.3065 23.3065 18.9945 23.3065 13.6944C23.3065 8.39421 18.9945 4.08337 13.6955 4.08337Z" fill="white"/>
</svg>
