<svg width="25" height="45" viewBox="0 0 25 45" fill="none" xmlns="http://www.w3.org/2000/svg">
<path d="M21.1635 10.7759L19.6411 1.64479C19.5743 1.24311 19.3672 0.878143 19.0566 0.61481C18.746 0.351476 18.3521 0.206852 17.9449 0.206665H7.62341C7.21622 0.206852 6.8223 0.351476 6.51172 0.61481C6.20113 0.878143 5.99403 1.24311 5.92725 1.64479L4.40483 10.7759C3.3487 11.0946 2.42281 11.744 1.76348 12.6284C1.10415 13.5129 0.746237 14.5857 0.742432 15.6889V29.4508C0.743798 30.8191 1.28796 32.131 2.25549 33.0985C3.22302 34.0661 4.53488 34.6102 5.90317 34.6116H17.6352L16.4878 41.4926H9.08046L8.74673 39.4902C8.71581 39.262 8.6394 39.0424 8.52201 38.8442C8.40463 38.6461 8.24867 38.4736 8.06337 38.3369C7.87808 38.2002 7.66722 38.1021 7.44331 38.0484C7.21939 37.9947 6.98697 37.9865 6.75982 38.0242C6.53267 38.062 6.31542 38.145 6.12094 38.2683C5.92647 38.3916 5.75873 38.5527 5.62766 38.742C5.4966 38.9314 5.40488 39.1451 5.35794 39.3705C5.311 39.596 5.3098 39.8285 5.35441 40.0544L5.92725 43.4949C5.99403 43.8966 6.20113 44.2616 6.51172 44.5249C6.8223 44.7882 7.21622 44.9329 7.62341 44.933H17.9449C18.3521 44.9329 18.746 44.7882 19.0566 44.5249C19.3672 44.2616 19.5743 43.8966 19.6411 43.4949L21.1635 34.3639C22.2196 34.0451 23.1455 33.3957 23.8048 32.5113C24.4641 31.6268 24.8221 30.554 24.8259 29.4508V15.6889C24.8221 14.5857 24.4641 13.5129 23.8048 12.6284C23.1455 11.744 22.2196 11.0946 21.1635 10.7759ZM16.4878 3.64716L17.6352 10.5281H7.93306L9.08046 3.64716H16.4878ZM21.3854 29.4508C21.3854 29.9071 21.2041 30.3446 20.8815 30.6672C20.5589 30.9898 20.1214 31.1711 19.6651 31.1711H5.90317C5.44693 31.1711 5.00938 30.9898 4.68677 30.6672C4.36416 30.3446 4.18292 29.9071 4.18292 29.4508V15.6889C4.18292 15.2326 4.36416 14.7951 4.68677 14.4725C5.00938 14.1499 5.44693 13.9686 5.90317 13.9686H19.6651C20.1214 13.9686 20.5589 14.1499 20.8815 14.4725C21.2041 14.7951 21.3854 15.2326 21.3854 15.6889V29.4508Z" fill="url(#paint0_linear_1_1338)"/>
<defs>
<linearGradient id="paint0_linear_1_1338" x1="12.7842" y1="0.206665" x2="17.6194" y2="64.5996" gradientUnits="userSpaceOnUse">
<stop stop-color="#656565"/>
<stop offset="1" stop-color="#656565" stop-opacity="0"/>
</linearGradient>
</defs>
</svg>
