<svg width="38" height="45" viewBox="0 0 38 45" fill="none" xmlns="http://www.w3.org/2000/svg">
<path d="M10.2776 29.4508C10.2776 31.152 10.7821 32.815 11.7272 34.2294C12.6723 35.6439 14.0157 36.7463 15.5873 37.3973C17.159 38.0483 18.8884 38.2187 20.5569 37.8868C22.2254 37.5549 23.758 36.7357 24.9609 35.5328C26.1638 34.3299 26.983 32.7973 27.3148 31.1289C27.6467 29.4604 27.4764 27.731 26.8254 26.1593C26.1744 24.5876 25.0719 23.2443 23.6575 22.2992C22.243 21.3541 20.58 20.8496 18.8789 20.8496C16.5985 20.8523 14.4124 21.7594 12.7999 23.3719C11.1875 24.9843 10.2804 27.1705 10.2776 29.4508ZM18.8789 24.2901C19.8996 24.2901 20.8973 24.5928 21.746 25.1598C22.5947 25.7269 23.2562 26.5329 23.6468 27.4759C24.0374 28.4189 24.1396 29.4566 23.9405 30.4577C23.7413 31.4587 23.2498 32.3783 22.5281 33.1C21.8063 33.8218 20.8868 34.3133 19.8857 34.5124C18.8846 34.7115 17.8469 34.6093 16.9039 34.2187C15.9609 33.8281 15.155 33.1667 14.5879 32.318C14.0208 31.4693 13.7181 30.4715 13.7181 29.4508C13.7195 28.0825 14.2637 26.7707 15.2312 25.8032C16.1987 24.8356 17.5106 24.2915 18.8789 24.2901ZM24.0396 12.2484C24.0396 11.2277 23.7369 10.2299 23.1699 9.38123C22.6028 8.53255 21.7968 7.87109 20.8538 7.48049C19.9108 7.08988 18.8732 6.98768 17.8721 7.18681C16.871 7.38594 15.9514 7.87745 15.2297 8.59919C14.5079 9.32094 14.0164 10.2405 13.8173 11.2416C13.6182 12.2427 13.7204 13.2803 14.111 14.2233C14.5016 15.1663 15.163 15.9723 16.0117 16.5394C16.8604 17.1064 17.8582 17.4091 18.8789 17.4091C20.2472 17.4078 21.559 16.8636 22.5266 15.8961C23.4941 14.9285 24.0382 13.6167 24.0396 12.2484ZM17.1586 12.2484C17.1586 11.9082 17.2595 11.5756 17.4485 11.2927C17.6376 11.0098 17.9062 10.7893 18.2206 10.6591C18.5349 10.5289 18.8808 10.4948 19.2145 10.5612C19.5482 10.6276 19.8547 10.7914 20.0953 11.032C20.3359 11.2726 20.4997 11.5791 20.5661 11.9128C20.6324 12.2465 20.5984 12.5924 20.4682 12.9067C20.338 13.221 20.1175 13.4897 19.8346 13.6787C19.5517 13.8677 19.2191 13.9686 18.8789 13.9686C18.4228 13.9682 17.9855 13.7868 17.663 13.4643C17.3405 13.1418 17.1591 12.7045 17.1586 12.2484Z" fill="url(#paint0_linear_1_1351)"/>
<path d="M34.6192 4.9373C34.5183 3.64474 33.9318 2.43831 32.9775 1.56065C32.0233 0.682997 30.7721 0.199221 29.4756 0.206627H8.28221C6.98547 0.199253 5.73406 0.683268 4.77976 1.56128C3.82547 2.4393 3.23911 3.64616 3.13868 4.93902L0.276191 39.3422C0.216712 40.0535 0.305416 40.7693 0.536695 41.4446C0.767974 42.1198 1.1368 42.7397 1.61987 43.2651C2.10293 43.7905 2.68973 44.2101 3.34319 44.4971C3.99665 44.7842 4.70255 44.9326 5.41628 44.933H22.3194C22.7757 44.933 23.2132 44.7518 23.5358 44.4292C23.8584 44.1066 24.0397 43.669 24.0397 43.2128C24.0397 42.7565 23.8584 42.319 23.5358 41.9964C23.2132 41.6738 22.7757 41.4925 22.3194 41.4925H5.41628C5.17842 41.4924 4.94318 41.4429 4.7254 41.3473C4.50762 41.2516 4.31205 41.1118 4.15104 40.9367C3.99003 40.7617 3.86707 40.5551 3.78994 40.3301C3.71281 40.1051 3.68318 39.8665 3.70292 39.6295L6.56885 5.22458C6.60231 4.79383 6.7976 4.39171 7.11546 4.09906C7.43331 3.80642 7.85016 3.64495 8.28221 3.64712H29.4756C29.9077 3.64495 30.3245 3.80642 30.6424 4.09906C30.9603 4.39171 31.1555 4.79383 31.189 5.22458L34.0549 39.6329C34.0742 39.8697 34.0442 40.1079 33.9668 40.3325C33.8895 40.5571 33.7664 40.7632 33.6055 40.9379C33.4445 41.1126 33.2491 41.2521 33.0316 41.3475C32.814 41.443 32.5791 41.4924 32.3416 41.4925H29.2004C28.7442 41.4925 28.3066 41.6738 27.984 41.9964C27.6614 42.319 27.4802 42.7565 27.4802 43.2128C27.4802 43.669 27.6614 44.1066 27.984 44.4292C28.3066 44.7518 28.7442 44.933 29.2004 44.933H32.3416C33.0554 44.9331 33.7616 44.7851 34.4153 44.4983C35.069 44.2115 35.6562 43.7923 36.1396 43.267C36.623 42.7417 36.9922 42.1218 37.2238 41.4466C37.4554 40.7713 37.5444 40.0553 37.4851 39.3439L34.6192 4.9373Z" fill="url(#paint1_linear_1_1351)"/>
<defs>
<linearGradient id="paint0_linear_1_1351" x1="18.8789" y1="7.08765" x2="17.3349" y2="42.8755" gradientUnits="userSpaceOnUse">
<stop stop-color="#656565"/>
<stop offset="1" stop-color="#656565" stop-opacity="0"/>
</linearGradient>
<linearGradient id="paint1_linear_1_1351" x1="18.8806" y1="0.206543" x2="17.3911" y2="51.9535" gradientUnits="userSpaceOnUse">
<stop stop-color="#656565"/>
<stop offset="1" stop-color="#656565" stop-opacity="0"/>
</linearGradient>
</defs>
</svg>
